<?xml version="1.0" encoding="utf-8"?>
<!-- Generator: Adobe Illustrator 24.1.2, SVG Export Plug-In . SVG Version: 6.00 Build 0)  -->
<svg version="1.1" id="Camada_1" xmlns="http://www.w3.org/2000/svg" xmlns:xlink="http://www.w3.org/1999/xlink" x="0px" y="0px"
	 viewBox="0 0 211.4 224.7" style="enable-background:new 0 0 211.4 224.7;" xml:space="preserve">
<style type="text/css">
	.st0{fill:#FE6A00;}
	.st1{fill:#201E1E;}
	.st2{fill:#FE6A01;}
</style>
<path class="st0" d="M147.7,78.8c3.9-14.5,7.7-29,11.7-43.9c14.7,3.9,29.4,7.9,45.1,12c-19.2,11.1-37.5,21.7-55.8,32.3
	C148.4,79.1,148.1,79,147.7,78.8z"/>
<path class="st0" d="M59.8,128.4c-15-4-29.5-7.9-45-12.1c19.1-11,37.3-21.5,55.5-32.1c0.3,0.2,0.6,0.4,0.9,0.5
	C67.9,99.3,63.5,113.6,59.8,128.4z"/>
<path class="st0" d="M91.9,72.2c19.2-11.1,37.7-21.8,57.1-33c-4.1,15.5-8.1,30.2-12,45.1C121.8,80.2,107.2,76.3,91.9,72.2z"/>
<path class="st0" d="M126.2,92.2c-18.1,10.5-36.3,21-54.4,31.5c-0.3-0.2-0.6-0.3-0.9-0.5c3.8-14.4,7.7-28.8,11.7-43.8
	c14.6,3.9,29,7.7,43.4,11.6C126,91.3,126.1,91.7,126.2,92.2z"/>
<path class="st1" d="M10.4,107.5c4.1-15.4,7.9-29.6,11.8-44.1c14.5,3.9,28.7,7.7,44.2,11.8C47.5,86.1,29.5,96.5,10.4,107.5z"/>
<path class="st1" d="M192.4,116.5c-4.1,15.3-7.9,29.5-11.8,44.2c-14.5-3.9-28.8-7.7-44.2-11.8C155.4,137.9,173.4,127.5,192.4,116.5z
	"/>
<path class="st1" d="M176.1,177.6c-4,15.1-7.8,29.3-11.8,44.1c-14.5-3.9-28.7-7.7-44.2-11.8C139.1,198.9,157.2,188.5,176.1,177.6z"
	/>
<path class="st1" d="M26.8,47.5c4.1-15.2,7.9-29.5,11.8-44.2C53.3,7.2,67.4,11,82.8,15.1C63.8,26.1,45.7,36.5,26.8,47.5z"/>
<path class="st1" d="M87.6,63.4c4.1-15.3,7.9-29.5,11.8-44.1c14.6,3.9,28.8,7.7,44.2,11.8C124.7,41.9,106.6,52.4,87.6,63.4z"/>
<path class="st1" d="M208.5,57c-3.8,14.2-7.6,28.3-11.5,42.9c-14.7-3.9-28.9-7.7-44.1-11.8c18.8-10.9,36.7-21.3,54.7-31.7
	C207.9,56.6,208.2,56.8,208.5,57z"/>
<path class="st1" d="M143.2,96c14.6,3.9,29,7.7,44.2,11.8c-18.8,10.9-36.8,21.3-55.9,32.4C135.5,124.9,139.3,110.7,143.2,96z"/>
<path class="st1" d="M76,68c-14.8-4-29-7.8-44.1-11.8c18.9-10.9,36.9-21.3,55.9-32.3C83.7,39,80,53.2,76,68z"/>
<path class="st1" d="M131.4,102c-3.8,14-7.5,28-11.3,42.4c-14.6-3.9-28.8-7.7-44.1-11.8c18.8-10.9,36.7-21.2,54.5-31.5
	C130.7,101.4,131.1,101.7,131.4,102z"/>
<path class="st1" d="M60.7,192.9c17.9-10.4,35.8-20.7,54.8-31.7c-4.1,15.3-7.9,29.5-11.8,44.1c-14.4-3.9-28.6-7.6-42.7-11.4
	C60.9,193.7,60.8,193.3,60.7,192.9z"/>
<path class="st1" d="M54.6,184.9c4-15.1,7.8-29.3,11.8-44.1c14.6,3.9,28.9,7.7,44.2,11.8C91.5,163.5,73.5,174,54.6,184.9z"/>
<path class="st1" d="M126.9,157.1c14.8,3.9,29,7.7,44.2,11.8c-18.7,10.8-36.7,21.3-55.9,32.4C119.2,186,122.9,171.9,126.9,157.1z"/>
<path class="st2" d="M50.7,136.1c-15,8.7-29.5,17.1-43.9,25.4c-4.7-8.1-5.1-19.7-1.1-37.3C20.5,128.1,35.2,132,50.7,136.1z"/>
<path class="st1" d="M43.3,189c-12.8-2.6-23.1-8.4-31.9-18.7c14.4-8.4,28.5-16.5,43.6-25.3C51,160.1,47.2,174.3,43.3,189z"/>
</svg>
